# xmcd
#
# Track frame offsets:
#	150
#	14905
#	33430
#	52325
#	69212
#	89933
#	106320
#	133681
#	151508
#	170519
#	181127
#	203721
#	222798
#	243548
#	256855
#
# Disc length: 3634 seconds
#
# Revision: 1
# Processed by: cddbd v1.5.2PL0 Copyright (c) Steve Scherf et al.
# Submitted via: audiograbber 1.83.01
#
DISCID=d40e300f
DTITLE=Steve Azar - Indianola
DYEAR=2008
DGENRE=Country
TTITLE0=Crowded
TTITLE1=You Don't Know A Thing
TTITLE2=You're My Life
TTITLE3=Still Tryin To Find My Way Around
TTITLE4=Empty Spaces
TTITLE5=Whats Wrong With Right Now
TTITLE6=The Rivers Workin
TTITLE7=I Won't Let You Lead Me Down
TTITLE8=The Coach
TTITLE9=Prelude (Home)
TTITLE10=Flatlands
TTITLE11=Bluestune feat. Jason Young
TTITLE12=Indianola
TTITLE13=Mississippi Minute
TTITLE14=Highway 61
EXTD=
EXTT0=
EXTT1=
EXTT2=
EXTT3=
EXTT4=
EXTT5=
EXTT6=
EXTT7=
EXTT8=
EXTT9=
EXTT10=
EXTT11=
EXTT12=
EXTT13=
EXTT14=
PLAYORDER=
